<svg width="79.664124" height="81.891479" viewBox="0 0 79.6641 81.8915" fill="none" xmlns="http://www.w3.org/2000/svg" xmlns:xlink="http://www.w3.org/1999/xlink">
	<desc>
			Created with Pixso.
	</desc>
	<defs/>
	<path id="Vector" d="M24.48 81.05C25.44 81.37 26.44 81.64 27.46 81.89C26.06 81.02 24.9 79.94 24.09 78.63C19.31 71.57 18.53 67.38 16.03 64.59C15.41 63.89 14.59 63.38 13.67 62.85C13.69 63.34 13.7 63.84 13.71 64.36C13.79 74.19 17.22 78.63 24.48 81.05ZM54.08 77.6C54.98 76.79 55.75 75.88 56.37 74.87C62.92 65.2 63.99 59.46 67.41 55.63C69.85 52.91 74.5 52.18 78.58 47.13C80.69 44.95 79.45 42.26 77.06 40.74C70.85 36.77 61.8 45.13 57.68 44.88C56.57 44.81 55.66 44.13 55.27 42.64C53.71 46.61 52.57 50.19 53.84 52.57C56.41 49.37 56.94 48.69 60.63 45.45C63.21 42.8 66.94 44.97 64.41 49.24C57.11 60.18 55.3 63.87 55.24 70.95C55.22 73.7 54.84 75.86 54.08 77.6ZM53.72 30.04C53.4 21.63 54.5 14.71 54.4 7.86C54.33 2.98 48.17 -2.64 45.17 4.25C42.82 9.64 40.93 22.24 39.83 26.05C37.93 17.1 37.37 10.07 33.83 3.94C30.92 -2.05 22.6 -1.73 24.25 8.45C26.6 16.6 27.4 20.52 27.49 25.6C28.99 24.3 31.01 24.17 32.27 27.06C33.99 31 35.37 40.2 36.17 42.98C37.55 36.45 37.97 31.31 40.55 26.84C42.68 22.46 48.75 22.7 47.54 30.14C45.39 37.6 45.02 40.21 45.21 45.74C47.5 40 48.44 37.04 51.94 31.95C52.37 31.18 53 30.52 53.72 30.04ZM26.33 27.02C23.92 20.89 22.41 17.03 18.22 10.94C15.39 5.8 5.79 4.31 9.88 15.84C12.9 24.81 18.36 34.04 15.63 39.18C12.1 34.8 11.38 33.86 6.33 29.43C2.8 25.8 -2.31 28.77 1.14 34.62C6.72 42.96 9.96 48.22 11.74 52.93C15.89 52.9 20.7 56.88 23.14 56.73C23.97 56.68 24.65 56.16 24.91 55C27.16 44.34 25.42 36.97 25.53 29.69C25.54 28.78 25.85 27.84 26.33 27.02Z" fill="#89B906" fill-opacity="1.000000" fill-rule="evenodd"/>
</svg>
