<svg width="40.000000" height="40.000000" viewBox="0 0 40 40" fill="none" xmlns="http://www.w3.org/2000/svg" xmlns:xlink="http://www.w3.org/1999/xlink">
	<desc>
			Created with Pixso.
	</desc>
	<defs>
		<clipPath id="clip1_151">
			<rect id="General / Home " width="24.000000" height="24.000000" transform="translate(8.000000 8.000000)" fill="white" fill-opacity="0"/>
		</clipPath>
	</defs>
	<circle id="Ellipse 9" cx="20.000000" cy="20.000000" r="20.000000" fill="#89B906" fill-opacity="1.000000"/>
	<rect id="General / Home " width="24.000000" height="24.000000" transform="translate(8.000000 8.000000)" fill="#89B906" fill-opacity="1.000000"/>
	<g clip-path="url(#clip1_151)">
		<rect id="Icon Frame" rx="-0.500000" width="23.000000" height="23.000000" transform="translate(8.500000 8.500000)" fill="#FFFFFF" fill-opacity="0"/>
		<path id="Vector" d="M25 29C26.1 29 27 28.1 27 27L27 18.02L27.73 18.02L27.75 18C27.75 17.58 27.42 17.25 27 17.25C26.79 17.25 26.6 17.33 26.46 17.46L20 11L13.53 17.46C13.39 17.33 13.21 17.25 13 17.25C12.58 17.25 12.25 17.58 12.25 18L12.27 18.02L13 18.02L13 27C13 28.1 13.89 29 15 29L25 29ZM29.5 19.46L29.53 19.46C29.82 19.76 29.82 20.23 29.53 20.53C29.23 20.82 28.76 20.82 28.46 20.53L28.46 20.5L29.5 19.46ZM11.53 20.53L11.53 20.5L10.49 19.46L10.46 19.46C10.17 19.76 10.17 20.23 10.46 20.53C10.76 20.82 11.23 20.82 11.53 20.53Z" fill="#FFFFFF" fill-opacity="1.000000" fill-rule="evenodd"/>
		<path id="Vector" d="M13 18L13 27C13 28.1 13.89 29 15 29L25 29C26.1 29 27 28.1 27 27L27 18M29 20L27 18L20 11L13 18L11 20" stroke="#FFFFFF" stroke-opacity="1.000000" stroke-width="1.500000" stroke-linejoin="round"/>
	</g>
</svg>
