<svg width="40.000000" height="40.000000" viewBox="0 0 40 40" fill="none" xmlns="http://www.w3.org/2000/svg" xmlns:xlink="http://www.w3.org/1999/xlink">
	<desc>
			Created with Pixso.
	</desc>
	<defs>
		<clipPath id="clip1_134">
			<rect id="eCommerce / Shopping Bag" width="24.000000" height="24.000000" transform="translate(8.000000 8.000000)" fill="white" fill-opacity="0"/>
		</clipPath>
	</defs>
	<circle id="Ellipse 9" cx="20.000000" cy="20.000000" r="20.000000" fill="#89B906" fill-opacity="1.000000"/>
	<rect id="eCommerce / Shopping Bag" width="24.000000" height="24.000000" transform="translate(8.000000 8.000000)" fill="#89B906" fill-opacity="1.000000"/>
	<g clip-path="url(#clip1_134)">
		<rect id="Icon Frame" rx="-0.500000" width="23.000000" height="23.000000" transform="translate(8.500000 8.500000)" fill="#FFFFFF" fill-opacity="0"/>
		<path id="Rectangle 63" d="M12 17L28 17L27.16 26.18C27.07 27.21 26.2 28 25.17 28L14.82 28C13.79 28 12.92 27.21 12.83 26.18L12 17Z" fill="#FFFFFF" fill-opacity="1.000000" fill-rule="nonzero"/>
		<path id="Rectangle 63" d="M28 17L27.16 26.18C27.07 27.21 26.2 28 25.17 28L14.82 28C13.79 28 12.92 27.21 12.83 26.18L12 17L28 17Z" stroke="#FFFFFF" stroke-opacity="1.000000" stroke-width="1.500000" stroke-linejoin="round"/>
		<path id="Ellipse 36" d="M15.25 19L15.25 16Q15.25 15.03 15.62 14.15Q15.98 13.29 16.64 12.64Q17.29 11.98 18.15 11.62Q19.03 11.25 20 11.25Q20.96 11.25 21.84 11.62Q22.7 11.98 23.35 12.64Q24.01 13.29 24.37 14.15Q24.75 15.03 24.75 16L24.75 19L23.25 19L23.25 16Q23.25 15.33 22.99 14.73Q22.74 14.15 22.29 13.7Q21.84 13.25 21.26 13Q20.66 12.75 20 12.75Q19.33 12.75 18.73 13Q18.15 13.25 17.7 13.7Q17.25 14.15 17 14.73Q16.75 15.33 16.75 16L16.75 19L15.25 19ZM16.73 18.98L16.75 19C16.75 19.41 16.42 19.75 16 19.75C15.58 19.75 15.25 19.41 15.25 19L15.27 18.98L16.73 18.98ZM24.73 18.98L24.75 19C24.75 19.41 24.42 19.75 24 19.75C23.58 19.75 23.25 19.41 23.25 19L23.27 18.98L24.73 18.98Z" fill="#FFFFFF" fill-opacity="1.000000" fill-rule="evenodd"/>
	</g>
</svg>
