<svg width="40.000000" height="40.000000" viewBox="0 0 40 40" fill="none" xmlns="http://www.w3.org/2000/svg" xmlns:xlink="http://www.w3.org/1999/xlink">
	<desc>
			Created with Pixso.
	</desc>
	<defs>
		<clipPath id="clip1_127">
			<rect id="General / Star" width="24.000000" height="24.000000" transform="translate(8.000000 8.000000)" fill="white" fill-opacity="0"/>
		</clipPath>
	</defs>
	<circle id="Ellipse 9" cx="20.000000" cy="20.000000" r="20.000000" fill="#89B906" fill-opacity="1.000000"/>
	<rect id="General / Star" width="24.000000" height="24.000000" transform="translate(8.000000 8.000000)" fill="#89B906" fill-opacity="1.000000"/>
	<g clip-path="url(#clip1_127)">
		<rect id="Icon Frame" rx="-0.500000" width="23.000000" height="23.000000" transform="translate(8.500000 8.500000)" fill="#FFFFFF" fill-opacity="0"/>
		<path id="Star 3" d="M19.99 10L23.1 16.72L30.46 17.6L25.02 22.63L26.46 29.89L19.99 26.28L13.53 29.89L14.97 22.63L9.53 17.6L16.89 16.72L19.99 10Z" fill="#FFFFFF" fill-opacity="1.000000" fill-rule="nonzero"/>
		<path id="Star 3" d="M23.1 16.72L30.46 17.6L25.02 22.63L26.46 29.89L19.99 26.28L13.53 29.89L14.97 22.63L9.53 17.6L16.89 16.72L19.99 10L23.1 16.72Z" stroke="#FFFFFF" stroke-opacity="1.000000" stroke-width="1.500000" stroke-linejoin="round"/>
	</g>
</svg>
