<svg width="40.000000" height="40.000000" viewBox="0 0 40 40" fill="none" xmlns="http://www.w3.org/2000/svg" xmlns:xlink="http://www.w3.org/1999/xlink">
	<desc>
			Created with Pixso.
	</desc>
	<defs>
		<clipPath id="clip1_141">
			<rect id="eCommerce / Box" width="24.000000" height="24.000000" transform="translate(8.000000 8.000000)" fill="white" fill-opacity="0"/>
		</clipPath>
	</defs>
	<circle id="Ellipse 9" cx="20.000000" cy="20.000000" r="20.000000" fill="#89B906" fill-opacity="1.000000"/>
	<rect id="eCommerce / Box" width="24.000000" height="24.000000" transform="translate(8.000000 8.000000)" fill="#89B906" fill-opacity="1.000000"/>
	<g clip-path="url(#clip1_141)">
		<rect id="Icon Frame" rx="-0.500000" width="23.000000" height="23.000000" transform="translate(8.500000 8.500000)" fill="#FFFFFF" fill-opacity="0"/>
		<path id="Vector" d="M12 16L28 16L28 26C28 27.1 27.1 28 26 28L14 28C12.89 28 12 27.1 12 26L12 16Z" fill="#FFFFFF" fill-opacity="1.000000" fill-rule="evenodd"/>
		<path id="Vector" d="M28 16L28 26C28 27.1 27.1 28 26 28L14 28C12.89 28 12 27.1 12 26L12 16L28 16Z" stroke="#FFFFFF" stroke-opacity="1.000000" stroke-width="1.500000" stroke-linejoin="round"/>
		<path id="Vector" d="M16 12L24 12L28 16L12 16L16 12Z" fill="#FFFFFF" fill-opacity="1.000000" fill-rule="evenodd"/>
		<path id="Vector" d="M24 12L28 16L12 16L16 12L24 12Z" stroke="#FFFFFF" stroke-opacity="1.000000" stroke-width="1.500000" stroke-linejoin="round"/>
		<path id="Vector 47" d="M16 20L20 20" stroke="#89B906" stroke-opacity="1.000000" stroke-width="1.500000" stroke-linejoin="round" stroke-linecap="round"/>
	</g>
</svg>
