<svg width="24.000000" height="24.000000" viewBox="0 0 24 24" fill="none" xmlns="http://www.w3.org/2000/svg" xmlns:xlink="http://www.w3.org/1999/xlink">
	<desc>
			Created with Pixso.
	</desc>
	<defs/>
	<circle id="Ellipse 1" r="12.000000" transform="matrix(-1 0 0 1 12 12)" fill="#618404" fill-opacity="1.000000"/>
	<path id="Vector" d="M7.49 9.57C8.36 12.96 11.03 15.63 14.42 16.5C15.7 16.83 16.79 15.72 16.79 14.39L16.79 13.8C16.79 13.46 16.53 13.2 16.2 13.17C15.64 13.11 15.1 12.98 14.6 12.78L13.69 13.69C12.21 12.98 11.01 11.78 10.3 10.3L11.21 9.39C11.01 8.89 10.88 8.35 10.82 7.79C10.79 7.46 10.53 7.19 10.2 7.19L9.6 7.19C8.27 7.19 7.16 8.29 7.49 9.57Z" fill="#FFFFFF" fill-opacity="1.000000" fill-rule="nonzero"/>
	<path id="Vector" d="M7.49 9.57C7.16 8.29 8.27 7.19 9.6 7.19L10.2 7.19C10.53 7.19 10.79 7.46 10.82 7.79C10.88 8.35 11.01 8.89 11.21 9.39L10.3 10.3C11.01 11.78 12.21 12.98 13.69 13.69L14.6 12.78C15.1 12.98 15.64 13.11 16.2 13.17C16.53 13.2 16.79 13.46 16.79 13.8L16.79 14.39C16.79 15.72 15.7 16.83 14.42 16.5C11.03 15.63 8.36 12.96 7.49 9.57Z" stroke="#FFFFFF" stroke-opacity="1.000000" stroke-width="1.000000" stroke-linejoin="round"/>
</svg>
